<svg width="1280" height="111" fill="none" xmlns="http://www.w3.org/2000/svg"><path fill-rule="evenodd" clip-rule="evenodd" d="m0 0 53 4.17c54 4.171 160 12.512 267 26.628 107 14.436 213 34.968 320 39.138 107 4.17 213-8.34 320-12.19 107-4.17 213 0 267 1.924l53 1.925V111H0V0Z" fill="#20DF7F" fill-opacity=".8"/><path fill-rule="evenodd" clip-rule="evenodd" d="m0 44.4 42.667 8.88c42.666 8.88 128 26.64 213.333 22.2 85.333-4.44 170.667-31.08 256-48.84C597.333 8.88 682.667 0 768 0s170.667 8.88 256 24.42c85.33 15.54 170.67 37.74 213.33 48.84l42.67 11.1V111H0V44.4Z" fill="#224957" fill-opacity=".8"/></svg>